<svg width="74" height="34" viewBox="0 0 74 34" fill="none" xmlns="http://www.w3.org/2000/svg">
<mask id="mask0_301_2200" style="mask-type:alpha" maskUnits="userSpaceOnUse" x="-1" y="18" width="76" height="16">
<rect x="-0.0166016" y="18.4421" width="74.5157" height="15.2236" fill="#D9D9D9"/>
</mask>
<g mask="url(#mask0_301_2200)">
<path d="M17.4647 19.0966V33.5055H12.967V26.3214L10.7487 33.5055H6.88189L4.66356 26.3214V33.5055H0.145508V19.0966H5.68114L8.85599 27.746L11.9494 19.0966H17.4647Z" fill="#0B0B0B"/>
<path d="M18.8928 27.7663C18.8928 26.5588 19.0963 25.5141 19.5034 24.6322C19.924 23.7367 20.4938 23.0583 21.2129 22.597C21.932 22.1222 22.7393 21.8847 23.6348 21.8847C24.381 21.8847 25.0254 22.0408 25.5682 22.3528C26.1109 22.6513 26.5247 23.0651 26.8096 23.5943V22.0272H31.3073V33.5055H26.8096V31.9384C26.5247 32.4676 26.1109 32.8882 25.5682 33.2002C25.0254 33.4987 24.381 33.648 23.6348 33.648C22.7393 33.648 21.932 33.4173 21.2129 32.956C20.4938 32.4811 19.924 31.8027 19.5034 30.9208C19.0963 30.0254 18.8928 28.9739 18.8928 27.7663ZM26.8096 27.7663C26.8096 27.1558 26.6536 26.6809 26.3415 26.3417C26.0295 26.0025 25.6292 25.8329 25.1408 25.8329C24.6523 25.8329 24.2521 26.0025 23.94 26.3417C23.628 26.6809 23.4719 27.1558 23.4719 27.7663C23.4719 28.3769 23.628 28.8518 23.94 29.191C24.2521 29.5302 24.6523 29.6997 25.1408 29.6997C25.6292 29.6997 26.0295 29.5302 26.3415 29.191C26.6536 28.8518 26.8096 28.3769 26.8096 27.7663Z" fill="#0B0B0B"/>
<path d="M40.683 33.5055L37.8542 28.9264V33.5055H33.3361V18.4453H37.8542V26.3214L40.7237 22.0272H45.9745L41.6803 27.807L46.0762 33.5055H40.683Z" fill="#0B0B0B"/>
<path d="M51.6074 18.4453V33.5055H47.0893V18.4453H51.6074Z" fill="#0B0B0B"/>
<path d="M64.7599 27.6646C64.7599 27.9766 64.7396 28.2751 64.6989 28.5601H57.4334C57.5012 29.5505 57.915 30.0457 58.6748 30.0457C59.1632 30.0457 59.516 29.8219 59.7331 29.3741H64.5157C64.3529 30.1882 64.0069 30.9208 63.4778 31.5721C62.9622 32.2098 62.3042 32.7186 61.5037 33.0985C60.7168 33.4648 59.8484 33.648 58.8987 33.648C57.759 33.648 56.7414 33.4105 55.8459 32.9357C54.964 32.4608 54.2721 31.7824 53.7701 30.9005C53.2816 30.005 53.0374 28.9603 53.0374 27.7663C53.0374 26.5724 53.2816 25.5345 53.7701 24.6526C54.2721 23.7571 54.964 23.0719 55.8459 22.597C56.7414 22.1222 57.759 21.8847 58.8987 21.8847C60.0384 21.8847 61.0492 22.1222 61.9311 22.597C62.8265 23.0583 63.5185 23.7232 64.0069 24.5915C64.5089 25.4598 64.7599 26.4842 64.7599 27.6646ZM60.1808 26.586C60.1808 26.2061 60.0587 25.9211 59.8145 25.7312C59.5703 25.5277 59.265 25.4259 58.8987 25.4259C58.0982 25.4259 57.6301 25.8126 57.4944 26.586H60.1808Z" fill="#0B0B0B"/>
<path d="M70.7069 24.1438C71.1682 23.4789 71.7313 22.9498 72.3961 22.5563C73.0609 22.1493 73.7529 21.9458 74.4719 21.9458V26.7691H73.1898C72.335 26.7691 71.7041 26.9184 71.2971 27.2169C70.9036 27.5153 70.7069 28.0445 70.7069 28.8043V33.5055H66.1888V22.0272H70.7069V24.1438Z" fill="#0B0B0B"/>
</g>
<path d="M12.0332 0.173828H5.65075L-0.0136719 16.1987H18.5752L12.0332 0.173828Z" fill="#984408"/>
<path d="M5.5957 0.173828H21.6206L34.2802 16.1987H18.2554L5.5957 0.173828Z" fill="#C56622"/>
</svg>
