<?xml version="1.0" encoding="utf-8"?><svg xmlns="http://www.w3.org/2000/svg" xmlns:xlink="http://www.w3.org/1999/xlink"><symbol fill="none" viewBox="0 0 14 8" id="angle-down" xmlns="http://www.w3.org/2000/svg"><path fill="#170807" d="M7 8a.99.99 0 01-.719-.281l-5-5a.964.964 0 010-1.406.964.964 0 011.407 0L7 5.593l4.281-4.28a.964.964 0 011.406 0 .964.964 0 010 1.406l-5 5A.97.97 0 017 8z"/></symbol><symbol fill="none" viewBox="0 0 50 50" id="arrow_circle" xmlns="http://www.w3.org/2000/svg"><path fill="#fff" d="M32.688 25.719l-4 4a.964.964 0 01-1.407 0 .964.964 0 010-1.407L29.563 26H18c-.563 0-1-.438-1-1 0-.594.438-1 1-1h11.563l-2.282-2.281a.964.964 0 010-1.407.964.964 0 011.407 0l4 4a.964.964 0 010 1.407z"/><rect width="49" height="49" x=".5" y=".5" stroke="#fff" rx="24.5"/></symbol><symbol fill="none" viewBox="0 0 50 50" id="arrow_circle_black" xmlns="http://www.w3.org/2000/svg"><path fill="#000" d="M32.688 25.719l-4 4a.964.964 0 01-1.407 0 .964.964 0 010-1.407L29.563 26H18c-.563 0-1-.438-1-1 0-.594.438-1 1-1h11.563l-2.282-2.281a.964.964 0 010-1.407.964.964 0 011.407 0l4 4a.964.964 0 010 1.407z"/><rect width="49" height="49" x=".5" y=".5" stroke="#000" rx="24.5"/></symbol><symbol fill="none" viewBox="0 0 13 24" id="facebook-f" xmlns="http://www.w3.org/2000/svg"><path fill="#111" d="M10.078 3.984h2.297V.188A30.618 30.618 0 009.047 0C5.812 0 3.562 2.016 3.562 5.672V9H0v4.266h3.563V24h4.406V13.266h3.468L12 9H7.969V6.094c0-1.266.375-2.11 2.11-2.11z"/></symbol><symbol fill="none" viewBox="0 0 24 32" id="file-pdf" xmlns="http://www.w3.org/2000/svg"><path fill="#000" d="M20 29c.5 0 1-.438 1-1v-2h3v2c0 2.25-1.813 4-4 4H4c-2.25 0-4-1.75-4-4v-2h3v2c0 .563.438 1 1 1h16zm-4-19c-1.125 0-2-.875-2-2V3H4c-.563 0-1 .5-1 1v8H0V4c0-2.188 1.75-4 4-4h10.313c1.062 0 2.062.438 2.812 1.188l5.688 5.687c.75.75 1.187 1.75 1.187 2.813V12h-3v-2h-5zM5.5 14C7.375 14 9 15.625 9 17.5 9 19.438 7.375 21 5.5 21H5v2c0 .563-.5 1-1 1-.563 0-1-.438-1-1v-8c0-.5.438-1 1-1h1.5zM7 17.5c0-.813-.688-1.5-1.5-1.5H5v3h.5c.813 0 1.5-.625 1.5-1.5zm3-2.5c0-.5.438-1 1-1h1.5c1.625 0 3 1.375 3 3v4a3 3 0 01-3 3H11c-.563 0-1-.438-1-1v-8zm2 7h.5c.5 0 1-.438 1-1v-4c0-.5-.5-1-1-1H12v6zm9-8c.5 0 1 .5 1 1 0 .563-.5 1-1 1h-2v2h2c.5 0 1 .5 1 1 0 .563-.5 1-1 1h-2v3c0 .563-.5 1-1 1-.563 0-1-.438-1-1v-8c0-.5.438-1 1-1h3z"/></symbol><symbol fill="none" viewBox="0 0 22 22" id="instagram" xmlns="http://www.w3.org/2000/svg"><path fill="#111" d="M11.5 5.61c-3 0-5.39 2.437-5.39 5.39 0 3 2.39 5.39 5.39 5.39A5.39 5.39 0 0016.89 11c0-2.953-2.437-5.39-5.39-5.39zm0 8.906A3.51 3.51 0 017.984 11c0-1.922 1.547-3.469 3.516-3.469A3.46 3.46 0 0114.969 11c0 1.969-1.547 3.516-3.469 3.516zm6.844-9.094a1.26 1.26 0 00-1.266-1.266 1.26 1.26 0 00-1.265 1.266 1.26 1.26 0 001.265 1.266 1.26 1.26 0 001.266-1.266zm3.562 1.266C21.813 5 21.438 3.5 20.22 2.28 19 1.062 17.5.687 15.812.594 14.079.5 8.875.5 7.142.594 5.453.688 4 1.063 2.734 2.28 1.516 3.5 1.141 5 1.047 6.687c-.094 1.735-.094 6.938 0 8.672.094 1.688.469 3.141 1.687 4.407 1.266 1.218 2.72 1.593 4.407 1.687 1.734.094 6.937.094 8.671 0 1.688-.094 3.188-.469 4.407-1.687 1.218-1.266 1.593-2.72 1.687-4.407.094-1.734.094-6.937 0-8.671zm-2.25 10.5c-.328.937-1.078 1.64-1.968 2.015-1.407.563-4.688.422-6.188.422-1.547 0-4.828.14-6.188-.422a3.554 3.554 0 01-2.015-2.015c-.563-1.36-.422-4.641-.422-6.188 0-1.5-.14-4.781.422-6.188a3.616 3.616 0 012.015-1.968c1.36-.563 4.641-.422 6.188-.422 1.5 0 4.781-.14 6.188.422.89.328 1.593 1.078 1.968 1.969.563 1.406.422 4.687.422 6.187 0 1.547.14 4.828-.422 6.188z"/></symbol><symbol fill="none" viewBox="0 0 21 16" id="scale-balanced" xmlns="http://www.w3.org/2000/svg"><path fill="#170807" d="M8.5 10.5c0-.5.031-.25-2.688-5.656A1.414 1.414 0 004.5 4c-.531 0-1.094.281-1.344.844C.437 10.28.5 10.03.5 10.5c0 1.406 1.781 2.5 3.969 2.5C6.625 13 8.5 11.906 8.5 10.5zm-4.031-5L6.75 10H2.219l2.25-4.5zm12.25 9H11.25V4.875c.844-.25 1.5-.969 1.688-1.875h3.812a.707.707 0 00.719-.719c0-.437-.313-.781-.75-.781H12.75C12.375.625 11.5 0 10.5 0 9.469 0 8.594.625 8.187 1.5H4.25a.74.74 0 00-.75.75c0 .375.313.75.75.75h3.781c.188.906.844 1.625 1.688 1.875V14.5H4.25a.74.74 0 00-.75.75c0 .375.313.75.75.75h12.469a.707.707 0 00.718-.719.705.705 0 00-.718-.781zM10.5 3.5c-.563 0-1-.438-1-1 0-.531.469-1 1-1 .5 0 .969.469.969 1a.98.98 0 01-.969 1zm9.969 7c0-.5.031-.25-2.688-5.656C17.563 4.28 17 4 16.47 4c-.532 0-1.094.281-1.344.844C12.437 10.28 12.5 10.03 12.5 10.5c0 1.406 1.781 2.5 4 2.5 2.188 0 3.969-1.094 3.969-2.5zm-6.25-.5l2.25-4.5 2.25 4.5h-4.5z"/></symbol><symbol fill="none" viewBox="0 0 19 19" id="search" xmlns="http://www.w3.org/2000/svg"><path d="M17.719 16.809l-4.711-4.711c1.02-1.23 1.582-2.813 1.582-4.536C14.59 3.556 11.285.25 7.277.25 3.234.25 0 3.555 0 7.563c0 4.042 3.27 7.312 7.277 7.312 1.688 0 3.27-.563 4.535-1.582l4.711 4.71a.847.847 0 00.633.247c.211 0 .422-.07.563-.246.351-.317.351-.844 0-1.195zM1.687 7.562a5.619 5.619 0 015.625-5.625c3.094 0 5.625 2.532 5.625 5.625a5.619 5.619 0 01-5.624 5.625 5.597 5.597 0 01-5.625-5.624z" fill="#170807"/></symbol><symbol fill="none" viewBox="0 0 21 22" id="share-alt" xmlns="http://www.w3.org/2000/svg"><path fill="#fff" d="M21 5c0 2.484-2.016 4.5-4.5 4.5-1.36 0-2.578-.563-3.422-1.547l-4.219 2.11c.094.328.094.656.094.937 0 .328 0 .656-.094.984l4.22 2.063A4.602 4.602 0 0116.5 12.5a4.501 4.501 0 010 9A4.471 4.471 0 0112 17c0-.281 0-.61.094-.938l-4.219-2.109A4.419 4.419 0 014.5 15.5 4.471 4.471 0 010 11c0-2.484 1.969-4.5 4.5-4.5 1.313 0 2.531.61 3.375 1.547l4.219-2.063C12 5.656 12 5.328 12 5 12 2.516 13.969.5 16.5.5 18.984.5 21 2.516 21 5zM4.453 13.25A2.22 2.22 0 006.703 11a2.25 2.25 0 00-2.25-2.25c-1.219 0-2.25 1.031-2.25 2.25a2.25 2.25 0 002.25 2.25zM16.5 2.75A2.25 2.25 0 0014.25 5a2.22 2.22 0 002.25 2.25A2.25 2.25 0 0018.75 5c0-1.219-1.031-2.25-2.25-2.25zm0 16.5A2.25 2.25 0 0018.75 17c0-1.219-1.031-2.25-2.25-2.25A2.25 2.25 0 0014.25 17a2.22 2.22 0 002.25 2.25z"/></symbol><symbol fill="none" viewBox="0 0 17 16" id="times" xmlns="http://www.w3.org/2000/svg"><path fill="#fff" d="M15.531 12.969c.61.562.61 1.547 0 2.11a1.454 1.454 0 01-1.031.421c-.422 0-.797-.14-1.078-.422L8.5 10.156l-4.969 4.922A1.454 1.454 0 012.5 15.5c-.422 0-.797-.14-1.078-.422a1.445 1.445 0 010-2.11L6.344 8 1.422 3.078a1.445 1.445 0 010-2.11 1.445 1.445 0 012.11 0L8.5 5.892 13.422.969a1.445 1.445 0 012.11 0 1.447 1.447 0 010 2.11l-4.923 4.968 4.922 4.922z"/></symbol><symbol fill="none" viewBox="0 0 21 24" id="trash-alt" xmlns="http://www.w3.org/2000/svg"><path fill="#FF1616" d="M6.75 18.75c0 .422-.375.75-.75.75a.74.74 0 01-.75-.75V8.25c0-.375.328-.75.75-.75.375 0 .75.375.75.75v10.5zm4.5 0c0 .422-.375.75-.75.75a.74.74 0 01-.75-.75V8.25c0-.375.328-.75.75-.75.375 0 .75.375.75.75v10.5zm4.5 0c0 .422-.375.75-.75.75a.74.74 0 01-.75-.75V8.25c0-.375.328-.75.75-.75.375 0 .75.375.75.75v10.5zM14.531 1.078L15.75 3h4.5c.375 0 .75.375.75.75 0 .422-.375.75-.75.75h-.75v15.75c0 2.11-1.688 3.75-3.75 3.75H5.25c-2.11 0-3.75-1.64-3.75-3.75V4.5H.75A.74.74 0 010 3.75C0 3.375.328 3 .75 3h4.453l1.219-1.922A2.205 2.205 0 018.297 0h4.36c.75 0 1.5.422 1.874 1.078zM6.937 3h7.079l-.75-1.125c-.141-.234-.375-.375-.61-.375h-4.36c-.233 0-.468.14-.608.375L6.938 3zM3 20.25a2.22 2.22 0 002.25 2.25h10.5A2.25 2.25 0 0018 20.25V4.5H3v15.75z"/></symbol><symbol fill="none" viewBox="0 0 24 20" id="twitter" xmlns="http://www.w3.org/2000/svg"><path fill="#111" d="M21.516 5.125c.937-.703 1.78-1.547 2.437-2.531a9.225 9.225 0 01-2.812.75A4.809 4.809 0 0023.297.625c-.938.563-2.016.984-3.094 1.219a4.922 4.922 0 00-3.61-1.547 4.921 4.921 0 00-4.921 4.922c0 .375.047.75.14 1.125a14.28 14.28 0 01-10.17-5.157C1.22 1.891.985 2.734.985 3.672c0 1.687.844 3.187 2.204 4.078-.797-.047-1.594-.234-2.25-.61v.048a4.928 4.928 0 003.937 4.828c-.375.093-.844.187-1.266.187-.328 0-.609-.047-.937-.094.61 1.97 2.437 3.375 4.594 3.422a9.895 9.895 0 01-6.094 2.11c-.422 0-.797-.047-1.172-.094 2.156 1.406 4.734 2.203 7.547 2.203 9.047 0 13.969-7.453 13.969-13.969v-.656z"/></symbol></svg>